<?xml version="1.0" standalone="no"?>
<!DOCTYPE svg PUBLIC "-//W3C//DTD SVG 20010904//EN"
 "http://www.w3.org/TR/2001/REC-SVG-20010904/DTD/svg10.dtd">
<svg version="1.0" xmlns="http://www.w3.org/2000/svg"
 width="745.000000pt" height="745.000000pt" viewBox="0 0 745.000000 745.000000"
 preserveAspectRatio="xMidYMid meet">
<metadata>
Created by potrace 1.11, written by Peter Selinger 2001-2013
</metadata>
<g transform="translate(0.000000,745.000000) scale(0.100000,-0.100000)"
fill="#000000" stroke="none">
<path d="M3920 5970 c-8 -5 -16 -17 -16 -27 -4 -51 -15 -162 -19 -193 -3 -19
-7 -62 -10 -95 -9 -120 -17 -190 -20 -205 -4 -15 -17 -171 -19 -224 -1 -27 2
-29 40 -33 l40 -4 2 40 c2 21 5 54 7 72 2 19 7 70 11 114 4 44 8 87 10 95 1 8
3 23 3 33 1 13 7 16 29 13 43 -7 120 -15 202 -21 41 -4 87 -8 101 -11 29 -4
36 5 35 46 -1 18 -7 25 -21 26 -11 1 -40 4 -65 7 -25 4 -76 9 -115 13 -38 3
-79 7 -90 9 -11 1 -31 3 -44 4 -23 1 -23 3 -17 64 3 34 9 89 12 122 6 70 11
88 21 82 5 -3 44 -8 88 -12 44 -4 90 -8 103 -10 90 -15 175 -16 183 -3 15 23
10 58 -8 59 -10 1 -27 3 -38 4 -11 1 -56 5 -100 9 -44 4 -87 9 -95 11 -8 2
-53 6 -100 10 -46 4 -87 8 -90 10 -3 2 -12 0 -20 -5z"/>
<path d="M3214 5950 c-176 -37 -305 -183 -318 -358 -13 -183 78 -349 229 -418
199 -91 441 -12 540 178 32 61 40 104 39 208 -2 104 -28 180 -88 253 -43 54
-125 109 -186 128 -48 15 -167 20 -216 9z m201 -87 c94 -30 190 -155 201 -262
3 -25 7 -51 9 -57 6 -21 -17 -119 -40 -163 -32 -63 -80 -109 -145 -140 -77
-36 -202 -37 -274 -2 -200 98 -249 400 -90 554 90 87 208 112 339 70z"/>
<path d="M4763 5799 c-12 -30 -11 -31 30 -48 23 -10 77 -30 120 -46 42 -15 77
-32 77 -36 0 -5 -15 -48 -34 -97 -19 -48 -73 -190 -121 -317 -48 -126 -89
-233 -91 -236 -2 -3 15 -13 37 -22 47 -18 34 -37 103 148 24 66 54 141 65 168
11 26 21 49 21 52 2 13 98 267 104 272 3 3 58 -15 123 -40 l118 -46 13 31 c7
17 10 34 5 39 -8 8 -538 209 -551 209 -4 0 -13 -14 -19 -31z"/>
<path d="M2140 5605 c-113 -57 -209 -105 -213 -107 -5 -2 69 -161 163 -354
l172 -350 224 110 223 110 -15 28 c-8 15 -19 28 -24 28 -5 0 -90 -40 -188 -89
l-179 -88 -67 134 c-37 75 -66 136 -64 137 2 1 44 21 93 45 256 123 248 118
225 161 -13 24 -12 24 -199 -69 -78 -39 -145 -71 -149 -71 -8 0 -116 224 -114
235 1 3 79 44 174 91 95 47 174 87 176 89 4 3 -27 66 -31 64 -1 -1 -94 -48
-207 -104z"/>
<path d="M5476 5468 c-65 -103 -161 -255 -268 -427 -101 -161 -107 -174 -91
-187 47 -37 44 -39 133 102 47 74 90 143 96 154 10 18 13 18 65 -14 l54 -32
-3 -215 -3 -215 39 -22 c22 -12 41 -22 43 -22 2 0 4 93 3 208 0 114 1 210 3
214 2 4 19 0 37 -7 52 -22 131 -12 180 22 56 39 97 120 91 180 -4 46 -32 100
-69 135 -23 22 -162 118 -171 118 -3 0 -24 14 -47 30 -22 17 -45 30 -50 30 -4
0 -23 -24 -42 -52z m149 -98 c74 -44 118 -84 135 -123 20 -45 18 -77 -11 -123
-45 -73 -130 -70 -259 8 -47 28 -87 53 -89 54 -2 2 29 55 69 119 69 111 73
115 93 102 12 -7 40 -24 62 -37z"/>
<path d="M1598 5287 c-221 -80 -327 -328 -231 -537 51 -110 154 -206 257 -240
54 -17 149 -20 204 -5 164 43 294 185 301 326 l2 49 -36 0 c-21 0 -35 -5 -36
-12 -5 -91 -27 -143 -86 -201 -142 -143 -364 -120 -493 52 -101 134 -92 313
20 422 62 60 114 83 191 84 l66 0 10 38 c6 20 7 38 4 38 -43 10 -125 4 -173
-14z"/>
<path d="M5935 4917 c-105 -105 -204 -214 -220 -242 -27 -45 -30 -59 -30 -135
0 -76 3 -90 28 -128 40 -62 95 -111 156 -139 44 -21 64 -25 115 -21 103 9 141
36 359 254 l198 197 -27 28 -27 28 -193 -192 c-120 -121 -209 -201 -237 -215
-52 -26 -125 -29 -172 -6 -52 24 -104 83 -119 133 -31 105 -3 153 227 383 103
104 187 192 187 197 0 8 -43 51 -51 51 -2 0 -90 -87 -194 -193z"/>
<path d="M998 4744 l-26 -27 40 -36 c23 -20 51 -45 62 -56 12 -11 75 -67 141
-125 66 -58 122 -107 125 -110 3 -3 43 -38 90 -79 47 -41 92 -83 102 -93 19
-21 36 -16 60 16 17 24 17 25 -31 68 -51 46 -180 161 -215 191 -12 10 -85 76
-164 145 -79 70 -147 128 -150 130 -4 1 -19 -10 -34 -24z"/>
<path d="M3650 4588 c-73 -8 -166 -32 -184 -49 -5 -4 20 1 55 13 84 26 216 32
294 12 81 -20 240 -99 265 -131 30 -39 41 -89 29 -141 -5 -25 -8 -47 -5 -49 2
-3 28 25 56 60 55 69 103 98 221 132 87 24 98 26 196 32 162 10 336 -35 438
-113 19 -14 35 -33 35 -42 0 -13 -264 -489 -350 -632 -15 -25 -41 -70 -57
-100 -17 -30 -72 -129 -123 -219 l-93 -163 -51 5 c-36 3 -96 26 -206 79 -85
42 -183 85 -217 96 -198 68 -355 42 -492 -82 l-35 -31 35 50 c39 55 288 406
459 643 104 145 139 207 86 152 -13 -14 -142 -182 -287 -375 -365 -487 -353
-472 -375 -457 -6 4 -24 36 -41 72 -72 154 -214 231 -415 225 -129 -4 -257
-29 -355 -70 -20 -9 -37 -14 -39 -12 -2 1 78 94 176 205 99 111 180 205 180
209 0 8 -40 -34 -191 -197 -156 -170 -211 -232 -207 -235 2 -1 64 10 138 26
338 72 542 28 668 -143 66 -90 71 -109 15 -57 -71 67 -146 101 -256 116 -63
10 -277 10 -402 1 -49 -4 -113 -7 -141 -7 l-52 -1 -4 -41 c-2 -22 0 -43 4 -45
4 -3 162 -36 350 -75 189 -38 395 -80 458 -94 63 -13 129 -26 145 -29 17 -3
140 -29 275 -56 135 -28 335 -69 445 -91 110 -22 216 -44 235 -49 19 -5 52
-11 72 -14 21 -3 43 -7 50 -8 7 -2 22 17 35 42 36 72 253 522 253 525 0 2 46
97 101 211 248 511 236 483 243 575 l7 84 -53 32 c-48 28 -109 58 -163 77 -52
20 -218 42 -290 40 -94 -4 -212 -32 -311 -75 l-71 -31 -71 46 c-190 122 -338
169 -482 154z m305 -1266 c87 -27 174 -73 294 -154 58 -39 126 -79 151 -88 39
-14 45 -20 48 -48 3 -28 0 -32 -21 -32 -39 0 -143 58 -297 165 -80 56 -167
110 -195 119 -93 31 -279 31 -382 0 -10 -3 -1 4 19 16 96 53 255 62 383 22z
m-265 -157 c44 -7 72 -18 183 -69 51 -24 77 -42 45 -31 -7 2 -76 16 -153 30
-77 14 -162 31 -190 37 -27 6 -59 12 -70 13 -11 1 -31 5 -45 10 -22 9 -19 10
25 15 67 7 150 5 205 -5z"/>
<path d="M6629 4521 l-22 -18 66 -106 c37 -59 67 -109 67 -111 0 -2 -55 -39
-122 -81 -233 -145 -414 -260 -443 -281 l-28 -21 22 -32 c23 -32 23 -32 50
-15 31 20 102 66 186 119 33 21 89 57 125 80 152 97 247 155 255 155 6 0 34
-40 63 -88 82 -133 77 -128 107 -108 14 9 25 21 25 26 0 14 -311 500 -320 500
-4 0 -18 -8 -31 -19z"/>
<path d="M3420 4520 c-8 -5 -10 -10 -5 -10 6 0 17 5 25 10 8 5 11 10 5 10 -5
0 -17 -5 -25 -10z"/>
<path d="M875 4399 c-103 -16 -172 -52 -242 -126 -114 -119 -146 -302 -79
-449 36 -79 112 -154 203 -200 73 -38 80 -39 177 -39 93 0 107 3 168 32 220
104 307 385 182 585 -57 90 -196 182 -294 194 -25 3 -49 6 -55 8 -5 1 -32 -1
-60 -5z m188 -117 c79 -39 137 -94 174 -164 23 -45 28 -65 28 -133 0 -68 -4
-89 -28 -137 -107 -218 -372 -251 -554 -68 -120 120 -117 328 7 449 73 71 129
91 237 87 57 -2 85 -9 136 -34z"/>
<path d="M6925 3798 c-77 -27 -205 -72 -285 -100 -80 -28 -178 -62 -219 -76
l-73 -25 6 -35 c8 -55 -13 -58 238 30 l127 45 57 -166 c31 -91 63 -181 70
-199 10 -26 11 -34 1 -37 -7 -3 -84 -30 -172 -60 -87 -31 -161 -57 -162 -59
-3 -3 17 -67 22 -74 2 -2 160 52 351 118 192 67 357 124 367 127 15 5 18 12
13 37 -4 17 -10 34 -15 39 -5 5 -73 -13 -161 -43 -89 -31 -155 -49 -160 -44
-5 5 -38 94 -74 197 -46 132 -62 189 -53 192 6 3 77 28 157 55 79 28 146 53
148 55 6 5 -27 75 -35 74 -4 0 -71 -23 -148 -51z"/>
<path d="M323 3655 l-10 -44 96 -68 c53 -37 101 -72 107 -78 6 -5 92 -68 192
-140 99 -71 178 -132 176 -134 -5 -5 -10 -6 -149 -16 -55 -4 -107 -8 -115 -10
-8 -2 -54 -6 -102 -10 -49 -3 -100 -8 -115 -10 -16 -2 -71 -6 -123 -10 -52 -4
-98 -10 -102 -13 -3 -4 -10 -24 -13 -44 l-7 -37 48 4 c65 5 209 18 324 30 25
3 74 7 110 10 36 3 81 8 100 10 19 2 71 7 115 11 73 6 108 9 127 13 9 1 29 72
22 82 -4 7 -632 474 -660 492 -7 4 -15 -10 -21 -38z"/>
<path d="M1762 2545 c-164 -59 -260 -201 -260 -386 0 -173 83 -305 238 -377
44 -21 73 -27 147 -29 118 -3 197 22 266 86 48 44 51 57 16 79 l-32 20 -28
-33 c-48 -54 -111 -79 -204 -79 -72 -1 -86 3 -143 34 -69 37 -117 89 -148 160
-15 34 -19 67 -19 145 0 86 4 107 25 150 31 64 98 131 156 156 100 45 240 26
312 -41 32 -31 32 -31 62 -13 44 26 40 40 -22 87 -89 67 -247 84 -366 41z"/>
<path d="M4795 2551 c-122 -40 -207 -124 -250 -248 -31 -86 -29 -217 3 -301
43 -112 139 -201 252 -235 120 -36 272 -11 358 60 63 52 68 67 31 91 l-32 20
-29 -33 c-106 -122 -338 -104 -447 34 -102 129 -92 350 20 467 105 109 304
121 404 24 l32 -31 31 18 c46 26 43 40 -20 87 -84 63 -241 83 -353 47z"/>
<path d="M2330 2161 l0 -391 43 0 42 0 0 183 0 182 208 3 c161 2 207 0 208
-10 1 -7 2 -89 3 -183 l1 -170 41 -3 41 -3 1 391 0 391 -42 -3 -41 -3 0 -167
0 -168 -210 0 -210 0 0 168 0 167 -42 3 -43 3 0 -390z"/>
<path d="M3119 2533 c-6 -117 2 -529 11 -568 32 -140 130 -215 279 -215 135 0
228 60 271 175 21 56 22 75 22 315 0 140 -1 267 -1 283 -1 25 -4 27 -40 27
l-40 0 -3 -287 c-3 -310 -5 -319 -62 -381 -45 -51 -132 -72 -207 -52 -57 15
-123 83 -134 136 -5 22 -9 42 -10 47 -2 4 -3 126 -4 272 l-1 265 -40 0 c-31 0
-40 -4 -41 -17z"/>
<path d="M3907 2543 c-3 -5 -6 -181 -6 -391 l0 -382 43 0 42 0 -1 178 0 177
65 2 65 3 105 -180 105 -180 52 0 53 0 -66 108 c-37 59 -87 140 -112 180 -47
77 -47 91 3 92 34 1 97 53 122 99 43 82 22 202 -45 250 -58 41 -101 49 -265
50 -85 1 -158 -2 -160 -6z m336 -88 c46 -22 65 -48 72 -101 7 -52 -20 -102
-69 -127 -28 -15 -65 -21 -149 -25 l-112 -4 1 133 c1 74 2 138 3 143 2 16 213
1 254 -19z"/>
<path d="M5362 2159 l0 -390 41 3 42 3 0 180 1 180 209 0 210 0 0 -180 0 -180
43 -3 42 -3 0 390 0 391 -43 0 -42 0 0 -167 0 -168 -210 -3 -210 -2 0 170 1
170 -42 0 -42 0 0 -391z"/>
</g>
</svg>
